<?xml version="1.0" encoding="utf-8"?>
<!-- Generator: Adobe Illustrator 22.0.1, SVG Export Plug-In . SVG Version: 6.00 Build 0)  -->
<svg version="1.1" id="Layer_1" xmlns="http://www.w3.org/2000/svg" xmlns:xlink="http://www.w3.org/1999/xlink" x="0px" y="0px"
	 viewBox="0 0 170 88" style="enable-background:new 0 0 170 88;" xml:space="preserve">
<style type="text/css">
	.st0{fill:#FFFFFF;}
</style>
<g>
	<polygon class="st0" points="0,21.6 26.1,88.1 29,15.1 	"/>
	<polygon class="st0" points="35.6,13.9 27,88.2 93.6,0.2 	"/>
	<polygon class="st0" points="85.3,64.3 85.2,64.3 75.4,39.6 73.5,39.6 84.2,65.7 86.2,65.7 97,39.6 95.2,39.6 	"/>
	<rect x="106.9" y="39.6" class="st0" width="1.8" height="26"/>
	<polygon class="st0" points="118.7,41 128.7,41 128.7,65.7 130.5,65.7 130.5,41 140.6,41 140.6,39.6 118.7,39.6 	"/>
	<polygon class="st0" points="152.4,64.3 152.4,52.8 168.8,52.8 168.8,51.4 152.4,51.4 152.4,41 169.8,41 169.8,39.6 150.6,39.6 
		150.6,65.7 170,65.7 170,64.3 	"/>
</g>
</svg>
